HIERARCHY
ROOT newVegas:Hips
{
	OFFSET 0.000000 96.479958 0.000000
	CHANNELS 6 Xposition Yposition Zposition Xrotation Yrotation Zrotation
	JOINT newVegas:Pelvis
	{
		OFFSET 0.000000 0.000000 0.000000
		CHANNELS 3 Xrotation Yrotation Zrotation
		JOINT newVegas:LeftUpLeg
		{
			OFFSET 18.735201 -5.666702 -4.541200
			CHANNELS 3 Xrotation Yrotation Zrotation
			JOINT newVegas:LeftLeg
			{
				OFFSET -0.021200 -31.938179 0.493100
				CHANNELS 3 Xrotation Yrotation Zrotation
				JOINT newVegas:LeftFoot
				{
					OFFSET 0.021200 -31.938179 -4.336299
					CHANNELS 3 Xrotation Yrotation Zrotation
					JOINT newVegas:LeftToeBase
					{
						OFFSET 0.943001 -26.722000 15.023500
						CHANNELS 3 Xrotation Yrotation Zrotation
						End Site
						{
							OFFSET 0.000000 30.670183 0.000000
						}
					}
				}
				JOINT newVegas:Left_PantLeg
				{
					OFFSET 0.663870 -9.044666 -1.108900
					CHANNELS 3 Xrotation Yrotation Zrotation
					End Site
					{
						OFFSET 1.415995 20.635357 0.000000
					}
				}
			}
		}
		JOINT newVegas:RightUpLeg
		{
			OFFSET -18.735201 -5.666702 -4.541200
			CHANNELS 3 Xrotation Yrotation Zrotation
			JOINT newVegas:RightLeg
			{
				OFFSET 0.018946 -31.938133 0.493100
				CHANNELS 3 Xrotation Yrotation Zrotation
				JOINT newVegas:RightFoot
				{
					OFFSET -0.018946 -31.938126 -4.336299
					CHANNELS 3 Xrotation Yrotation Zrotation
					JOINT newVegas:RightToeBase
					{
						OFFSET -0.943001 -26.722004 15.023500
						CHANNELS 3 Xrotation Yrotation Zrotation
						End Site
						{
							OFFSET 0.000000 30.670187 0.000000
						}
					}
				}
				JOINT newVegas:Right_PantLeg
				{
					OFFSET -0.661674 -9.044716 -1.108900
					CHANNELS 3 Xrotation Yrotation Zrotation
					End Site
					{
						OFFSET -1.415958 20.635269 0.000000
					}
				}
			}
		}
	}
	JOINT newVegas:Spine
	{
		OFFSET 0.000000 10.199997 -0.299500
		CHANNELS 3 Xrotation Yrotation Zrotation
		JOINT newVegas:Spine1
		{
			OFFSET 0.000000 11.900002 -1.516600
			CHANNELS 3 Xrotation Yrotation Zrotation
			JOINT newVegas:Spine2
			{
				OFFSET 0.000000 13.600006 -2.842500
				CHANNELS 3 Xrotation Yrotation Zrotation
				JOINT newVegas:Neck
				{
					OFFSET 0.000000 9.624100 -2.890100
					CHANNELS 3 Xrotation Yrotation Zrotation
					JOINT newVegas:Head
					{
						OFFSET 0.000000 14.068802 -1.351900
						CHANNELS 3 Xrotation Yrotation Zrotation
						JOINT newVegas:Hair_Back
						{
							OFFSET 0.000000 3.231903 -17.524799
							CHANNELS 3 Xrotation Yrotation Zrotation
							End Site
							{
								OFFSET 0.000000 19.849884 0.000000
							}
						}
						JOINT newVegas:Hair_Front
						{
							OFFSET 0.000000 31.260406 4.573800
							CHANNELS 3 Xrotation Yrotation Zrotation
							JOINT newVegas:Hair_Front1
							{
								OFFSET 0.000000 2.284103 11.993300
								CHANNELS 3 Xrotation Yrotation Zrotation
								JOINT newVegas:Hair_Front2
								{
									OFFSET 0.000000 2.284103 11.993300
									CHANNELS 3 Xrotation Yrotation Zrotation
									End Site
									{
										OFFSET 0.000000 12.208862 0.000000
									}
								}
							}
						}
						JOINT newVegas:Jowel
						{
							OFFSET 0.000000 -7.458206 6.864100
							CHANNELS 3 Xrotation Yrotation Zrotation
							End Site
							{
								OFFSET 0.000000 19.849884 0.000000
							}
						}
					}
				}
				JOINT newVegas:LeftShoulder
				{
					OFFSET 15.263000 10.923401 -0.547700
					CHANNELS 3 Xrotation Yrotation Zrotation
					JOINT newVegas:LeftArm
					{
						OFFSET 25.438599 -2.830597 -13.032500
						CHANNELS 3 Xrotation Yrotation Zrotation
						JOINT newVegas:LeftForeArm
						{
							OFFSET 29.960503 0.000000 0.000000
							CHANNELS 3 Xrotation Yrotation Zrotation
							JOINT newVegas:LeftHand
							{
								OFFSET 27.849251 0.000000 0.000000
								CHANNELS 3 Xrotation Yrotation Zrotation
								JOINT newVegas:LeftHandThumb1
								{
									OFFSET 4.487587 -3.305161 6.305391
									CHANNELS 3 Xrotation Yrotation Zrotation
									JOINT newVegas:LeftHandThumb2
									{
										OFFSET 5.480453 -3.164139 3.164143
										CHANNELS 3 Xrotation Yrotation Zrotation
										JOINT newVegas:LeftHandThumb3
										{
											OFFSET 5.159721 -2.978973 2.978967
											CHANNELS 3 Xrotation Yrotation Zrotation
											End Site
											{
												OFFSET 2.494507 5.926697 1.738678
											}
										}
									}
								}
								JOINT newVegas:LeftHandIndex1
								{
									OFFSET 18.578728 -0.527832 5.208049
									CHANNELS 3 Xrotation Yrotation Zrotation
									JOINT newVegas:LeftHandIndex2
									{
										OFFSET 3.192009 0.000000 0.000000
										CHANNELS 3 Xrotation Yrotation Zrotation
										JOINT newVegas:LeftHandIndex3
										{
											OFFSET 3.835129 0.000000 0.000000
											CHANNELS 3 Xrotation Yrotation Zrotation
											End Site
											{
												OFFSET -0.034599 3.816971 0.371180
											}
										}
									}
								}
								JOINT newVegas:LeftHandMiddle1
								{
									OFFSET 18.476105 0.000000 0.000000
									CHANNELS 3 Xrotation Yrotation Zrotation
									JOINT newVegas:LeftHandMiddle2
									{
										OFFSET 3.324875 0.000000 0.000000
										CHANNELS 3 Xrotation Yrotation Zrotation
										JOINT newVegas:LeftHandMiddle3
										{
											OFFSET 4.596550 0.000000 0.000000
											CHANNELS 3 Xrotation Yrotation Zrotation
											End Site
											{
												OFFSET 0.057701 4.578827 0.399218
											}
										}
									}
								}
								JOINT newVegas:LeftHandRing1
								{
									OFFSET 17.732719 0.121887 -4.201567
									CHANNELS 3 Xrotation Yrotation Zrotation
									JOINT newVegas:LeftHandRing2
									{
										OFFSET 2.733170 0.000000 0.000000
										CHANNELS 3 Xrotation Yrotation Zrotation
										JOINT newVegas:LeftHandRing3
										{
											OFFSET 3.178268 0.000000 0.000000
											CHANNELS 3 Xrotation Yrotation Zrotation
											End Site
											{
												OFFSET 0.119102 3.170624 0.185394
											}
										}
									}
								}
								JOINT newVegas:LeftHandPinky1
								{
									OFFSET 15.989624 -0.606689 -7.535461
									CHANNELS 3 Xrotation Yrotation Zrotation
									JOINT newVegas:LeftHandPinky2
									{
										OFFSET 2.538986 0.000000 0.000000
										CHANNELS 3 Xrotation Yrotation Zrotation
										JOINT newVegas:LeftHandPinky3
										{
											OFFSET 2.593102 0.000000 0.000000
											CHANNELS 3 Xrotation Yrotation Zrotation
											End Site
											{
												OFFSET -0.150902 2.584198 0.152708
											}
										}
									}
								}
							}
							JOINT newVegas:Left_Sleeve
							{
								OFFSET 0.267448 -0.649796 0.577675
								CHANNELS 3 Xrotation Yrotation Zrotation
								End Site
								{
									OFFSET 0.000000 15.991241 0.000000
								}
							}
							JOINT newVegas:Left_CapeC
							{
								OFFSET 15.715958 -8.608795 -6.935905
								CHANNELS 3 Xrotation Yrotation Zrotation
								JOINT newVegas:Left_CapeC1
								{
									OFFSET 0.000000 -8.688499 0.000000
									CHANNELS 3 Xrotation Yrotation Zrotation
									End Site
									{
										OFFSET 0.000000 8.688499 0.000000
									}
								}
							}
						}
						JOINT newVegas:Left_CapeB
						{
							OFFSET 26.118385 -8.608795 -7.079235
							CHANNELS 3 Xrotation Yrotation Zrotation
							JOINT newVegas:Left_CapeB1
							{
								OFFSET 0.000000 -8.688499 0.000000
								CHANNELS 3 Xrotation Yrotation Zrotation
								End Site
								{
									OFFSET 0.000000 8.688499 0.000000
								}
							}
						}
						JOINT newVegas:Left_CapeA
						{
							OFFSET 5.115639 -8.608795 -10.395809
							CHANNELS 3 Xrotation Yrotation Zrotation
							JOINT newVegas:Left_CapeA1
							{
								OFFSET 0.000000 -8.688499 0.000000
								CHANNELS 3 Xrotation Yrotation Zrotation
								End Site
								{
									OFFSET 0.000000 8.688499 0.000000
								}
							}
						}
					}
				}
				JOINT newVegas:RightShoulder
				{
					OFFSET -15.263000 10.923401 -0.547700
					CHANNELS 3 Xrotation Yrotation Zrotation
					JOINT newVegas:RightArm
					{
						OFFSET -25.438599 -2.830597 -13.032500
						CHANNELS 3 Xrotation Yrotation Zrotation
						JOINT newVegas:RightForeArm
						{
							OFFSET -29.960503 0.000000 0.000000
							CHANNELS 3 Xrotation Yrotation Zrotation
							JOINT newVegas:RightHand
							{
								OFFSET -27.849251 0.000000 0.000000
								CHANNELS 3 Xrotation Yrotation Zrotation
								JOINT newVegas:RightHandThumb1
								{
									OFFSET -4.487587 -3.305161 6.305391
									CHANNELS 3 Xrotation Yrotation Zrotation
									JOINT newVegas:RightHandThumb2
									{
										OFFSET -5.480453 -3.164139 3.164143
										CHANNELS 3 Xrotation Yrotation Zrotation
										JOINT newVegas:RightHandThumb3
										{
											OFFSET -5.159721 -2.978973 2.978967
											CHANNELS 3 Xrotation Yrotation Zrotation
											End Site
											{
												OFFSET -2.494507 5.926697 1.738678
											}
										}
									}
								}
								JOINT newVegas:RightHandIndex1
								{
									OFFSET -18.578728 -0.527832 5.208049
									CHANNELS 3 Xrotation Yrotation Zrotation
									JOINT newVegas:RightHandIndex2
									{
										OFFSET -3.192009 0.000000 0.000000
										CHANNELS 3 Xrotation Yrotation Zrotation
										JOINT newVegas:RightHandIndex3
										{
											OFFSET -3.835129 0.000000 0.000000
											CHANNELS 3 Xrotation Yrotation Zrotation
											End Site
											{
												OFFSET 0.034599 3.816971 0.371180
											}
										}
									}
								}
								JOINT newVegas:RightHandMiddle1
								{
									OFFSET -18.476105 0.000000 0.000000
									CHANNELS 3 Xrotation Yrotation Zrotation
									JOINT newVegas:RightHandMiddle2
									{
										OFFSET -3.324875 0.000000 0.000000
										CHANNELS 3 Xrotation Yrotation Zrotation
										JOINT newVegas:RightHandMiddle3
										{
											OFFSET -4.596550 0.000000 0.000000
											CHANNELS 3 Xrotation Yrotation Zrotation
											End Site
											{
												OFFSET -0.057701 4.578827 0.399218
											}
										}
									}
								}
								JOINT newVegas:RightHandRing1
								{
									OFFSET -17.732719 0.121887 -4.201567
									CHANNELS 3 Xrotation Yrotation Zrotation
									JOINT newVegas:RightHandRing2
									{
										OFFSET -2.733170 0.000000 0.000000
										CHANNELS 3 Xrotation Yrotation Zrotation
										JOINT newVegas:RightHandRing3
										{
											OFFSET -3.178268 0.000000 0.000000
											CHANNELS 3 Xrotation Yrotation Zrotation
											End Site
											{
												OFFSET -0.119102 3.170624 0.185394
											}
										}
									}
								}
								JOINT newVegas:RightHandPinky1
								{
									OFFSET -15.989624 -0.606689 -7.535461
									CHANNELS 3 Xrotation Yrotation Zrotation
									JOINT newVegas:RightHandPinky2
									{
										OFFSET -2.538986 0.000000 0.000000
										CHANNELS 3 Xrotation Yrotation Zrotation
										JOINT newVegas:RightHandPinky3
										{
											OFFSET -2.593102 0.000000 0.000000
											CHANNELS 3 Xrotation Yrotation Zrotation
											End Site
											{
												OFFSET 0.150902 2.584198 0.152708
											}
										}
									}
								}
							}
							JOINT newVegas:Right_CapeC
							{
								OFFSET -15.715958 -8.608795 -6.935905
								CHANNELS 3 Xrotation Yrotation Zrotation
								JOINT newVegas:Right_CapeC1
								{
									OFFSET 0.000000 -8.688499 0.000000
									CHANNELS 3 Xrotation Yrotation Zrotation
									End Site
									{
										OFFSET 0.000000 8.688499 0.000000
									}
								}
							}
							JOINT newVegas:Right_Sleeve
							{
								OFFSET -0.267448 -0.649994 0.577675
								CHANNELS 3 Xrotation Yrotation Zrotation
								End Site
								{
									OFFSET 0.000000 15.991302 0.000000
								}
							}
						}
						JOINT newVegas:Right_CapeA
						{
							OFFSET -5.115540 -8.608795 -10.395824
							CHANNELS 3 Xrotation Yrotation Zrotation
							JOINT newVegas:Right_CapeA1
							{
								OFFSET 0.000000 -8.688499 0.000000
								CHANNELS 3 Xrotation Yrotation Zrotation
								End Site
								{
									OFFSET 0.000000 8.688499 0.000000
								}
							}
						}
						JOINT newVegas:Right_CapeB
						{
							OFFSET -26.118187 -8.608795 -7.079266
							CHANNELS 3 Xrotation Yrotation Zrotation
							JOINT newVegas:Right_CapeB1
							{
								OFFSET 0.000000 -8.688499 0.000000
								CHANNELS 3 Xrotation Yrotation Zrotation
								End Site
								{
									OFFSET 0.000000 8.688499 0.000000
								}
							}
						}
					}
				}
				JOINT newVegas:Left_Collar
				{
					OFFSET 18.625099 8.655502 8.828100
					CHANNELS 3 Xrotation Yrotation Zrotation
					JOINT newVegas:Left_Collar1
					{
						OFFSET 14.783401 10.540405 -1.259500
						CHANNELS 3 Xrotation Yrotation Zrotation
						End Site
						{
							OFFSET 0.000000 18.199875 0.000000
						}
					}
				}
				JOINT newVegas:Collar_Back
				{
					OFFSET 0.000000 15.630707 -20.132601
					CHANNELS 3 Xrotation Yrotation Zrotation
					End Site
					{
						OFFSET 0.000000 22.523010 0.000000
					}
				}
				JOINT newVegas:Left_Peck
				{
					OFFSET 17.239599 -5.132599 25.482599
					CHANNELS 3 Xrotation Yrotation Zrotation
					End Site
					{
						OFFSET 0.000000 22.523010 0.000000
					}
				}
				JOINT newVegas:Right_Peck
				{
					OFFSET -17.239599 -5.132202 25.482599
					CHANNELS 3 Xrotation Yrotation Zrotation
					End Site
					{
						OFFSET 0.000000 22.523010 0.000000
					}
				}
				JOINT newVegas:Right_Collar
				{
					OFFSET -18.625099 8.655792 8.828100
					CHANNELS 3 Xrotation Yrotation Zrotation
					JOINT newVegas:Right_Collar1
					{
						OFFSET -14.783401 10.539993 -1.259500
						CHANNELS 3 Xrotation Yrotation Zrotation
						End Site
						{
							OFFSET 0.000000 18.199631 0.000000
						}
					}
				}
			}
		}
		JOINT newVegas:Belly
		{
			OFFSET 0.000000 -6.540398 9.014299
			CHANNELS 3 Xrotation Yrotation Zrotation
			End Site
			{
				OFFSET 0.000000 11.566666 0.000000
			}
		}
	}
	JOINT newVegas:ElvisFacialAnim_Joint
	{
		OFFSET 1.000000 -95.330101 -8.825800
		CHANNELS 3 Xrotation Yrotation Zrotation
		End Site
		{
			OFFSET 0.000000 35.315800 0.000000
		}
	}
}
MOTION
Frames: 4
Frame Time: 0.033333
-0.063718 94.492554 4.133445 2.689445 0.382316 -0.346899 -0.000000 -0.000000 -0.000000 -4.155600 -3.198408 -2.130946 14.458066 0.186755 -0.376593 -13.836376 17.463945 2.832171 0.000000 -0.000001 -0.000000 0.000001 0.000000 0.000000 -3.275924 -1.826113 -0.687830 13.734239 0.073090 0.518881 -13.557104 -13.392015 1.200567 0.000000 0.000001 0.000000 0.000001 0.000000 -0.000000 -1.243612 -0.346372 0.311339 -2.483930 -0.720025 0.767608 -2.483930 -0.720025 0.767608 0.973267 -0.074440 0.271980 0.973271 -0.074440 0.271979 0.000000 0.000000 -0.000000 0.973201 -0.074439 0.271979 0.973278 -0.074441 0.271979 -0.000000 -0.000000 0.000000 0.000000 0.000000 -0.000000 0.914589 -9.492745 -8.448146 14.041016 -16.837009 -72.169275 -0.000010 -17.290762 0.000010 -7.183428 -8.084967 12.850717 -2.127889 1.426845 5.098765 6.321333 12.626541 0.713966 -0.000002 -0.000001 -0.000004 1.454330 4.402636 -12.529241 0.079668 0.963871 -9.449453 -0.000001 -0.000001 0.000000 0.243263 3.800271 -13.521918 0.096864 1.062007 -10.421942 0.000001 -0.000002 0.000000 -1.046988 -0.149940 -18.129298 0.186738 1.468774 -14.489869 -0.000001 0.000004 0.000002 -5.035298 -3.589657 -19.234047 0.221559 1.597471 -15.791814 -0.000003 0.000004 -0.000002 0.000001 0.000000 -0.000001 0.000001 0.000000 -0.000001 0.000000 0.000001 -0.000001 -0.000002 -0.000001 -0.000000 -0.000002 -0.000001 -0.000001 -0.000002 -0.000001 -0.000000 -0.000004 -0.000001 -0.000000 1.315870 13.909500 2.554758 13.337626 10.173362 74.976250 0.000002 18.142856 0.000004 37.716260 5.764558 -7.279751 -4.571359 3.238672 -4.770625 6.358358 -14.447611 -2.112221 -0.000000 -0.000002 -0.000001 1.650139 -5.821354 9.714410 0.041878 -0.623781 7.680432 0.000000 -0.000000 0.000000 0.738416 -5.270491 16.568142 0.143352 -1.147797 14.238109 -0.000001 0.000001 0.000001 -0.895448 -0.688896 21.113737 0.238530 -1.472796 18.397941 -0.000002 0.000001 0.000000 -5.135808 -0.686294 26.712235 0.419606 -1.933675 24.484580 0.000001 0.000002 -0.000003 -0.000001 0.000001 -0.000001 -0.000001 0.000001 -0.000001 -0.000001 0.000001 -0.000001 -0.000000 0.000000 -0.000000 -0.000000 0.000000 0.000000 -0.000000 0.000000 -0.000000 -0.000000 -0.000000 0.000000 0.000000 -0.000000 0.000000 0.000000 -0.000000 0.000000 0.000000 -0.000000 0.000000 0.000000 -0.000000 0.000000 0.000000 -0.000000 0.000000 0.000000 -0.000000 0.000000 0.000000 -0.000000 0.000000 0.000000 0.000000 -0.000000 -0.000000 -0.000000 -0.000000 
-0.069217 94.299072 4.051443 2.909652 -0.031229 -0.418093 0.000000 0.000000 -0.000000 -5.188233 -3.240662 -2.174185 16.151869 0.622455 -0.356426 -14.720273 17.521911 2.788482 -0.000000 -0.000001 -0.000000 0.000001 0.000000 0.000000 -4.503772 -1.553513 -0.621795 15.354607 0.352504 0.482566 -14.180376 -13.520914 1.162388 -0.000000 -0.000001 -0.000000 0.000001 -0.000000 0.000000 -1.037314 -0.317246 0.445037 -2.255013 -0.676038 0.796419 -2.254857 -0.675907 0.796426 0.952766 -0.051955 0.317236 0.952772 -0.051955 0.317235 -0.000000 0.000000 0.000000 0.952835 -0.051956 0.317236 0.952756 -0.051955 0.317236 -0.000000 0.000000 -0.000000 -0.000000 0.000000 0.000000 0.957707 -10.076681 -9.538209 13.313340 -16.378187 -70.397524 0.000005 -17.279458 0.000029 -5.610722 -6.628181 11.316583 -2.283478 1.010633 5.027383 6.235174 12.149064 0.703440 0.000004 0.000000 -0.000004 1.248547 3.756721 -12.030112 0.077985 0.953685 -9.348778 -0.000001 0.000000 0.000001 0.260767 3.874258 -13.395088 0.100660 1.082499 -10.625447 0.000001 -0.000000 -0.000001 -0.819958 0.588882 -18.258195 0.192115 1.489426 -14.698207 0.000001 -0.000001 -0.000000 -4.699767 -2.246338 -19.557285 0.234710 1.643231 -16.256834 -0.000001 0.000002 0.000001 0.000003 0.000000 -0.000000 0.000003 0.000000 -0.000000 0.000002 0.000001 -0.000000 0.000003 0.000000 -0.000001 0.000003 0.000000 -0.000001 0.000003 0.000000 -0.000001 0.000002 0.000000 -0.000001 1.215833 13.716918 3.985964 13.016575 10.431979 72.756015 -0.000001 18.018893 -0.000004 37.171539 6.058366 -6.391495 -3.189753 2.911062 -4.850898 6.665862 -15.156454 -2.021559 0.000000 -0.000002 -0.000001 1.647794 -5.626606 10.329502 0.081417 -0.867963 10.717844 -0.000003 0.000001 -0.000000 0.769242 -5.310429 17.159197 0.210563 -1.385896 17.276712 0.000001 0.000000 0.000001 -0.663854 -1.366590 21.628462 0.322888 -1.705491 21.439014 0.000000 0.000001 -0.000002 -4.839280 -1.440738 27.220092 0.528131 -2.155978 27.525036 0.000002 -0.000000 -0.000000 -0.000001 -0.000000 0.000000 -0.000001 -0.000000 0.000000 -0.000002 0.000000 0.000000 0.000002 0.000001 0.000001 0.000002 0.000001 0.000001 0.000002 0.000001 0.000001 0.000002 0.000001 0.000001 -0.000000 -0.000000 -0.000000 -0.000000 -0.000000 -0.000000 -0.000000 -0.000000 -0.000000 -0.000000 -0.000000 -0.000000 -0.000000 -0.000000 -0.000000 -0.000000 -0.000000 -0.000000 -0.000000 -0.000000 -0.000000 0.000000 0.000000 -0.000000 0.000000 0.000000 -0.000000 
-0.014202 94.050705 3.884768 3.370380 -0.249306 -0.476818 -0.000000 -0.000000 0.000000 -6.782615 -3.648844 -2.467168 18.156608 1.170675 -0.084818 -15.574658 17.735057 2.645254 0.000000 -0.000001 -0.000000 0.000001 -0.000000 0.000000 -6.139848 -1.259550 -0.594981 17.242027 0.837060 0.509730 -14.928128 -14.047922 1.028675 -0.000000 -0.000001 0.000000 0.000001 -0.000000 -0.000000 -0.867041 -0.310911 0.678029 -2.023537 -0.647418 0.880802 -2.023060 -0.647326 0.881181 0.916303 0.034003 0.376472 0.916308 0.034003 0.376472 -0.000000 -0.000000 -0.000000 0.916372 0.034004 0.376472 0.916301 0.034000 0.376473 0.000000 -0.000000 0.000000 -0.000000 -0.000000 -0.000000 1.046732 -10.649407 -10.644448 12.219937 -16.190489 -68.490623 0.000003 -17.274300 0.000012 -3.930731 -5.144379 9.420961 -2.452895 0.560406 4.948405 6.141654 11.632107 0.691114 -0.000005 0.000001 -0.000001 1.038722 3.053454 -11.493778 0.076180 0.942673 -9.239767 -0.000003 -0.000001 0.000001 0.279308 3.954459 -13.257767 0.104876 1.104681 -10.845804 0.000000 0.000000 -0.000000 -0.569269 1.387321 -18.401284 0.198021 1.511765 -14.923811 0.000001 -0.000000 -0.000002 -4.314777 -0.798181 -19.916084 0.249377 1.692665 -16.760364 -0.000002 -0.000005 -0.000002 0.000005 0.000000 0.000000 0.000005 0.000000 0.000000 0.000004 0.000000 0.000000 -0.000001 0.000000 -0.000000 -0.000001 0.000000 -0.000000 -0.000001 0.000000 -0.000000 -0.000002 0.000000 -0.000000 1.204321 13.366968 5.170491 12.669606 10.832116 70.316675 0.000008 18.086565 -0.000008 36.338311 6.256580 -5.426672 -1.644098 2.525209 -4.917740 7.016611 -15.995279 -1.915731 -0.000000 -0.000003 -0.000001 1.661356 -5.480980 11.056064 0.140887 -1.138067 14.114673 -0.000000 -0.000001 -0.000000 0.805915 -5.356903 17.851820 0.300523 -1.647442 20.674711 -0.000002 0.000000 -0.000002 -0.416055 -2.055850 22.212588 0.431679 -1.959947 24.839858 -0.000003 0.000001 0.000001 -4.541984 -2.178858 27.800507 0.663228 -2.397289 30.925369 0.000004 0.000001 0.000001 0.000002 0.000001 -0.000000 0.000002 0.000000 -0.000000 0.000002 0.000001 0.000000 -0.000001 0.000002 0.000001 -0.000001 0.000002 0.000001 -0.000001 0.000002 0.000001 -0.000001 0.000002 0.000001 -0.000000 0.000000 -0.000000 -0.000000 0.000000 -0.000000 -0.000000 0.000000 -0.000000 -0.000000 0.000000 -0.000000 -0.000000 0.000000 -0.000000 -0.000000 0.000000 -0.000000 -0.000000 0.000000 -0.000000 -0.000000 0.000000 -0.000000 -0.000000 -0.000000 0.000000 
0.172287 93.746819 3.651744 3.917563 0.172866 -0.404353 0.000000 0.000000 -0.000000 -8.780648 -4.518503 -3.194291 20.240209 1.805854 0.458445 -16.168772 17.834913 2.383599 -0.000000 0.000000 -0.000000 -0.000000 -0.000000 0.000001 -7.955551 -1.218044 -0.843169 19.582134 1.407921 0.668152 -16.060572 -14.973790 0.816533 -0.000000 -0.000002 0.000000 0.000001 -0.000000 -0.000001 -0.623347 -0.306870 1.051275 -1.734763 -0.618356 1.051754 -1.733964 -0.616616 1.052362 0.869684 0.229948 0.428961 0.869687 0.229948 0.428960 -0.000000 0.000000 -0.000000 0.869829 0.229941 0.428962 0.869610 0.229955 0.428958 0.000000 0.000000 -0.000000 -0.000000 0.000000 -0.000000 1.167644 -11.204688 -11.598885 10.434624 -16.845774 -66.539109 0.000004 -17.018542 0.000028 -1.764488 -3.561928 6.965235 -2.634055 0.082507 4.862515 6.042024 11.082901 0.676923 -0.000000 0.000000 -0.000004 0.830512 2.302035 -10.928307 0.074279 0.930970 -9.123905 0.000002 -0.000001 0.000000 0.298594 4.039751 -13.111871 0.109436 1.128232 -11.079923 -0.000006 0.000001 0.000000 -0.297272 2.233880 -18.557504 0.204400 1.535475 -15.163548 0.000004 -0.000002 -0.000000 -3.880549 0.732916 -20.308219 0.265427 1.745035 -17.295441 0.000005 -0.000005 -0.000000 -0.000000 -0.000001 0.000000 -0.000000 -0.000001 0.000000 -0.000001 -0.000001 0.000000 0.000001 0.000000 0.000000 0.000001 0.000000 -0.000001 0.000001 0.000000 0.000000 -0.000000 -0.000000 -0.000000 1.254659 13.028062 6.046210 12.562694 11.209372 67.515348 -0.000003 18.584803 -0.000007 34.622065 5.947987 -4.685844 -0.004245 2.109961 -4.955806 7.394275 -16.911823 -1.795120 -0.000001 -0.000002 -0.000001 1.683254 -5.364599 11.849374 0.221603 -1.420909 17.727587 -0.000001 0.000000 -0.000001 0.846494 -5.407025 18.605475 0.413038 -1.919172 24.288909 -0.000003 -0.000000 0.000000 -0.151205 -2.749136 22.840257 0.563753 -2.222944 28.457220 -0.000001 -0.000001 0.000001 -4.237028 -2.903971 28.426474 0.822388 -2.644622 34.542346 0.000000 0.000002 -0.000002 0.000000 -0.000000 -0.000000 0.000000 -0.000000 0.000000 0.000000 0.000000 0.000000 -0.000000 0.000000 0.000000 -0.000000 0.000000 0.000000 -0.000000 0.000000 0.000000 -0.000000 -0.000000 0.000000 -0.000000 0.000000 -0.000000 -0.000000 0.000000 -0.000000 -0.000000 0.000000 -0.000000 -0.000000 0.000000 -0.000000 -0.000000 0.000000 -0.000000 -0.000000 0.000000 -0.000000 -0.000000 0.000000 -0.000000 -0.000000 0.000000 -0.000000 0.000000 0.000000 -0.000000 
